ffmpeg started on 2025-05-12 at 17:13:00
Report written to "D:\Convert\FFMetrics\reports\psnr_report-6.txt"
Log level: 32
Command line:
ffmpeg -hide_banner -nostdin -i "G:\\\xc0\xed\xe8\xec\xe5\\\xce\xed\xe3\xee\xe8\xed\xe3\xe8\\!_35_\xcb\xe5\xf2\xee_2024\\DreamCast\\\xce\xef\xe5\xf0\xe0\xf6\xe8\xff - \xd1\xe5\xec\xe5\xe9\xea\xe0 \xa8\xe4\xe7\xe0\xea\xf3\xf0\xe0\\[DC] Yozakura-san Chi no Daisakusen - 08_Telegram_HEVC.mkv" -i "G:\\\xc0\xed\xe8\xec\xe5\\\xce\xed\xe3\xee\xe8\xed\xe3\xe8\\!_35_\xcb\xe5\xf2\xee_2024\\DreamCast\\\xce\xef\xe5\xf0\xe0\xf6\xe8\xff - \xd1\xe5\xec\xe5\xe9\xea\xe0 \xa8\xe4\xe7\xe0\xea\xf3\xf0\xe0\\[DC] Yozakura-san Chi no Daisakusen - 08_Telegram.mp4" -lavfi "[0:v]settb=AVTB,setpts=PTS-STARTPTS,format=pix_fmts=yuv420p10,fps=24000/1001,scale=1920:1080:flags=bicubic[main];[1:v]settb=AVTB,setpts=PTS-STARTPTS,format=pix_fmts=yuv420p,fps=24000/1001,scale=1920:1080:flags=bicubic[ref];[main][ref]psnr=eof_action=endall:stats_file='D\\:/Convert/FFMetrics/logs/psnr_logfile-6.txt'" -f null -
Input #0, matroska,webm, from 'G:\Аниме\Онгоинги\!_35_Лето_2024\DreamCast\Операция - Семейка Ёдзакура\[DC] Yozakura-san Chi no Daisakusen - 08_Telegram_HEVC.mkv':
  Metadata:
    COMPATIBLE_BRANDS: isomiso2avc1mp41
    MAJOR_BRAND     : isom
    MINOR_VERSION   : 512
    ENCODER         : Lavf61.7.100
  Duration: 00:23:53.64, start: -0.021000, bitrate: 1529 kb/s
  Stream #0:0: Video: hevc (Main 10), yuv420p10le(tv, bt709, progressive), 1920x1080 [SAR 1:1 DAR 16:9], 23.98 fps, 23.98 tbr, 1k tbn (default)
      Metadata:
        HANDLER_NAME    : VideoHandler
        VENDOR_ID       : [0][0][0][0]
        ENCODER         : Lavc61.19.100 libx265
        BPS             : 1332596
        DURATION        : 00:23:53.515708333
        NUMBER_OF_FRAMES: 34370
        NUMBER_OF_BYTES : 238787103
        _STATISTICS_WRITING_APP: mkvpropedit v66.0.0 ('Josie') 64-bit
        _STATISTICS_WRITING_DATE_UTC: 2025-05-08 13:53:45
        _STATISTICS_TAGS: BPS DURATION NUMBER_OF_FRAMES NUMBER_OF_BYTES
  Stream #0:1: Audio: aac (LC), 48000 Hz, stereo, fltp (default)
      Metadata:
        HANDLER_NAME    : SoundHandler
        VENDOR_ID       : [0][0][0][0]
        ENCODER         : Lavc61.19.100 aac
        BPS             : 192929
        DURATION        : 00:23:53.642000000
        NUMBER_OF_FRAMES: 67203
        NUMBER_OF_BYTES : 34573955
        _STATISTICS_WRITING_APP: mkvpropedit v66.0.0 ('Josie') 64-bit
        _STATISTICS_WRITING_DATE_UTC: 2025-05-08 13:53:45
        _STATISTICS_TAGS: BPS DURATION NUMBER_OF_FRAMES NUMBER_OF_BYTES
Input #1, mov,mp4,m4a,3gp,3g2,mj2, from 'G:\Аниме\Онгоинги\!_35_Лето_2024\DreamCast\Операция - Семейка Ёдзакура\[DC] Yozakura-san Chi no Daisakusen - 08_Telegram.mp4':
  Metadata:
    major_brand     : isom
    minor_version   : 512
    compatible_brands: isomiso2avc1mp41
    encoder         : Lavf60.16.100
  Duration: 00:23:53.58, start: 0.000000, bitrate: 3623 kb/s
  Stream #1:0[0x1](und): Video: h264 (High) (avc1 / 0x31637661), yuv420p(tv, bt709, progressive), 1920x1080 [SAR 1:1 DAR 16:9], 3475 kb/s, 23.98 fps, 23.98 tbr, 24k tbn (default)
      Metadata:
        handler_name    : VideoHandler
        vendor_id       : [0][0][0][0]
        encoder         : Lavc60.31.102 h264_qsv
  Stream #1:1[0x2](und): Audio: aac (HE-AACv2) (mp4a / 0x6134706D), 48000 Hz, stereo, fltp, 144 kb/s (default)
      Metadata:
        handler_name    : SoundHandler
        vendor_id       : [0][0][0][0]
Stream mapping:
  Stream #0:0 (hevc) -> settb:default
  Stream #1:0 (h264) -> settb:default
  psnr:default -> Stream #0:0 (wrapped_avframe)
  Stream #0:1 -> #0:1 (aac (native) -> pcm_s16le (native))
Output #0, null, to 'pipe:':
  Metadata:
    COMPATIBLE_BRANDS: isomiso2avc1mp41
    MAJOR_BRAND     : isom
    MINOR_VERSION   : 512
    encoder         : Lavf61.7.100
  Stream #0:0: Video: wrapped_avframe, yuv420p10le(tv, bt709, progressive), 1920x1080 [SAR 1:1 DAR 16:9], q=2-31, 200 kb/s, 23.98 fps, 23.98 tbn
      Metadata:
        encoder         : Lavc61.19.100 wrapped_avframe
  Stream #0:1: Audio: pcm_s16le, 48000 Hz, stereo, s16, 1536 kb/s (default)
      Metadata:
        HANDLER_NAME    : SoundHandler
        VENDOR_ID       : [0][0][0][0]
        _STATISTICS_TAGS: BPS DURATION NUMBER_OF_FRAMES NUMBER_OF_BYTES
        BPS             : 192929
        DURATION        : 00:23:53.642000000
        NUMBER_OF_FRAMES: 67203
        NUMBER_OF_BYTES : 34573955
        _STATISTICS_WRITING_APP: mkvpropedit v66.0.0 ('Josie') 64-bit
        _STATISTICS_WRITING_DATE_UTC: 2025-05-08 13:53:45
        encoder         : Lavc61.19.100 pcm_s16le
frame=  176 fps=0.0 q=-0.0 size=N/A time=00:00:07.34 bitrate=N/A speed=14.2x    frame=  437 fps=420 q=-0.0 size=N/A time=00:00:18.22 bitrate=N/A speed=17.5x    frame=  675 fps=437 q=-0.0 size=N/A time=00:00:28.15 bitrate=N/A speed=18.2x    frame=  970 fps=469 q=-0.0 size=N/A time=00:00:40.45 bitrate=N/A speed=19.6x    frame= 1226 fps=474 q=-0.0 size=N/A time=00:00:51.13 bitrate=N/A speed=19.7x    frame= 1427 fps=461 q=-0.0 size=N/A time=00:00:59.51 bitrate=N/A speed=19.2x    frame= 1651 fps=456 q=-0.0 size=N/A time=00:01:08.86 bitrate=N/A speed=  19x    frame= 1834 fps=444 q=-0.0 size=N/A time=00:01:16.49 bitrate=N/A speed=18.5x    frame= 2018 fps=434 q=-0.0 size=N/A time=00:01:24.16 bitrate=N/A speed=18.1x    frame= 2174 fps=421 q=-0.0 size=N/A time=00:01:30.67 bitrate=N/A speed=17.5x    frame= 2342 fps=413 q=-0.0 size=N/A time=00:01:37.68 bitrate=N/A speed=17.2x    frame= 2512 fps=405 q=-0.0 size=N/A time=00:01:44.77 bitrate=N/A speed=16.9x    frame= 2686 fps=400 q=-0.0 size=N/A time=00:01:52.02 bitrate=N/A speed=16.7x    frame= 2894 fps=400 q=-0.0 size=N/A time=00:02:00.70 bitrate=N/A speed=16.7x    frame= 3075 fps=397 q=-0.0 size=N/A time=00:02:08.25 bitrate=N/A speed=16.6x    frame= 3282 fps=397 q=-0.0 size=N/A time=00:02:16.88 bitrate=N/A speed=16.6x    frame= 3532 fps=402 q=-0.0 size=N/A time=00:02:27.31 bitrate=N/A speed=16.8x    frame= 3722 fps=401 q=-0.0 size=N/A time=00:02:35.23 bitrate=N/A speed=16.7x    frame= 3871 fps=395 q=-0.0 size=N/A time=00:02:41.45 bitrate=N/A speed=16.5x    frame= 4078 fps=395 q=-0.0 size=N/A time=00:02:50.08 bitrate=N/A speed=16.5x    frame= 4275 fps=394 q=-0.0 size=N/A time=00:02:58.30 bitrate=N/A speed=16.4x    frame= 4486 fps=395 q=-0.0 size=N/A time=00:03:07.10 bitrate=N/A speed=16.5x    frame= 4758 fps=401 q=-0.0 size=N/A time=00:03:18.44 bitrate=N/A speed=16.7x    frame= 5031 fps=406 q=-0.0 size=N/A time=00:03:29.83 bitrate=N/A speed=16.9x    frame= 5260 fps=408 q=-0.0 size=N/A time=00:03:39.38 bitrate=N/A speed=  17x    frame= 5511 fps=411 q=-0.0 size=N/A time=00:03:49.85 bitrate=N/A speed=17.1x    frame= 5741 fps=412 q=-0.0 size=N/A time=00:03:59.44 bitrate=N/A speed=17.2x    frame= 6022 fps=417 q=-0.0 size=N/A time=00:04:11.16 bitrate=N/A speed=17.4x    frame= 6220 fps=416 q=-0.0 size=N/A time=00:04:19.42 bitrate=N/A speed=17.3x    frame= 6380 fps=412 q=-0.0 size=N/A time=00:04:26.09 bitrate=N/A speed=17.2x    frame= 6578 fps=411 q=-0.0 size=N/A time=00:04:34.35 bitrate=N/A speed=17.1x    frame= 6753 fps=409 q=-0.0 size=N/A time=00:04:41.65 bitrate=N/A speed=  17x    frame= 6918 fps=406 q=-0.0 size=N/A time=00:04:48.53 bitrate=N/A speed=16.9x    frame= 7095 fps=404 q=-0.0 size=N/A time=00:04:55.92 bitrate=N/A speed=16.9x    frame= 7260 fps=402 q=-0.0 size=N/A time=00:05:02.80 bitrate=N/A speed=16.8x    frame= 7402 fps=398 q=-0.0 size=N/A time=00:05:08.72 bitrate=N/A speed=16.6x    frame= 7643 fps=400 q=-0.0 size=N/A time=00:05:18.77 bitrate=N/A speed=16.7x    frame= 7890 fps=402 q=-0.0 size=N/A time=00:05:29.07 bitrate=N/A speed=16.8x    frame= 8134 fps=404 q=-0.0 size=N/A time=00:05:39.25 bitrate=N/A speed=16.9x    frame= 8387 fps=406 q=-0.0 size=N/A time=00:05:49.80 bitrate=N/A speed=16.9x    frame= 8649 fps=409 q=-0.0 size=N/A time=00:06:00.73 bitrate=N/A speed=  17x    frame= 8935 fps=412 q=-0.0 size=N/A time=00:06:12.66 bitrate=N/A speed=17.2x    frame= 9199 fps=414 q=-0.0 size=N/A time=00:06:23.67 bitrate=N/A speed=17.3x    frame= 9466 fps=417 q=-0.0 size=N/A time=00:06:34.81 bitrate=N/A speed=17.4x    frame= 9685 fps=417 q=-0.0 size=N/A time=00:06:43.94 bitrate=N/A speed=17.4x    frame= 9806 fps=413 q=-0.0 size=N/A time=00:06:48.99 bitrate=N/A speed=17.2x    frame= 9932 fps=410 q=-0.0 size=N/A time=00:06:54.24 bitrate=N/A speed=17.1x    frame=10193 fps=411 q=-0.0 size=N/A time=00:07:05.13 bitrate=N/A speed=17.2x    frame=10463 fps=414 q=-0.0 size=N/A time=00:07:16.39 bitrate=N/A speed=17.3x    frame=10740 fps=416 q=-0.0 size=N/A time=00:07:27.98 bitrate=N/A speed=17.4x    frame=10987 fps=418 q=-0.0 size=N/A time=00:07:38.24 bitrate=N/A speed=17.4x    frame=11264 fps=420 q=-0.0 size=N/A time=00:07:49.80 bitrate=N/A speed=17.5x    frame=11506 fps=421 q=-0.0 size=N/A time=00:07:59.89 bitrate=N/A speed=17.5x    frame=11740 fps=421 q=-0.0 size=N/A time=00:08:09.65 bitrate=N/A speed=17.6x    frame=11959 fps=421 q=-0.0 size=N/A time=00:08:18.78 bitrate=N/A speed=17.6x    frame=12176 fps=421 q=-0.0 size=N/A time=00:08:27.84 bitrate=N/A speed=17.6x    frame=12418 fps=422 q=-0.0 size=N/A time=00:08:37.93 bitrate=N/A speed=17.6x    frame=12691 fps=424 q=-0.0 size=N/A time=00:08:49.32 bitrate=N/A speed=17.7x    frame=12905 fps=424 q=-0.0 size=N/A time=00:08:58.24 bitrate=N/A speed=17.7x    frame=13096 fps=423 q=-0.0 size=N/A time=00:09:06.21 bitrate=N/A speed=17.6x    frame=13294 fps=422 q=-0.0 size=N/A time=00:09:14.47 bitrate=N/A speed=17.6x    frame=13546 fps=424 q=-0.0 size=N/A time=00:09:24.98 bitrate=N/A speed=17.7x    frame=13816 fps=425 q=-0.0 size=N/A time=00:09:36.24 bitrate=N/A speed=17.7x    frame=14087 fps=426 q=-0.0 size=N/A time=00:09:47.54 bitrate=N/A speed=17.8x    frame=14354 fps=428 q=-0.0 size=N/A time=00:09:58.68 bitrate=N/A speed=17.9x    frame=14580 fps=428 q=-0.0 size=N/A time=00:10:08.10 bitrate=N/A speed=17.9x    frame=14852 fps=430 q=-0.0 size=N/A time=00:10:19.45 bitrate=N/A speed=17.9x    frame=15089 fps=430 q=-0.0 size=N/A time=00:10:29.33 bitrate=N/A speed=17.9x    frame=15327 fps=431 q=-0.0 size=N/A time=00:10:39.26 bitrate=N/A speed=  18x    frame=15555 fps=431 q=-0.0 size=N/A time=00:10:48.77 bitrate=N/A speed=  18x    frame=15778 fps=431 q=-0.0 size=N/A time=00:10:58.07 bitrate=N/A speed=  18x    frame=16029 fps=431 q=-0.0 size=N/A time=00:11:08.54 bitrate=N/A speed=  18x    frame=16286 fps=433 q=-0.0 size=N/A time=00:11:19.26 bitrate=N/A speed=  18x    frame=16532 fps=433 q=-0.0 size=N/A time=00:11:29.52 bitrate=N/A speed=18.1x    frame=16793 fps=434 q=-0.0 size=N/A time=00:11:40.40 bitrate=N/A speed=18.1x    frame=16940 fps=432 q=-0.0 size=N/A time=00:11:46.53 bitrate=N/A speed=  18x    frame=17117 fps=431 q=-0.0 size=N/A time=00:11:53.92 bitrate=N/A speed=  18x    frame=17379 fps=432 q=-0.0 size=N/A time=00:12:04.84 bitrate=N/A speed=  18x    frame=17654 fps=433 q=-0.0 size=N/A time=00:12:16.31 bitrate=N/A speed=18.1x    frame=17876 fps=433 q=-0.0 size=N/A time=00:12:25.57 bitrate=N/A speed=18.1x    frame=18165 fps=435 q=-0.0 size=N/A time=00:12:37.63 bitrate=N/A speed=18.1x    frame=18424 fps=436 q=-0.0 size=N/A time=00:12:48.43 bitrate=N/A speed=18.2x    frame=18706 fps=437 q=-0.0 size=N/A time=00:13:00.19 bitrate=N/A speed=18.2x    frame=18966 fps=438 q=-0.0 size=N/A time=00:13:11.04 bitrate=N/A speed=18.3x    frame=19225 fps=438 q=-0.0 size=N/A time=00:13:21.84 bitrate=N/A speed=18.3x    frame=19476 fps=439 q=-0.0 size=N/A time=00:13:32.31 bitrate=N/A speed=18.3x    frame=19728 fps=440 q=-0.0 size=N/A time=00:13:42.82 bitrate=N/A speed=18.3x    frame=19944 fps=439 q=-0.0 size=N/A time=00:13:51.83 bitrate=N/A speed=18.3x    frame=20207 fps=440 q=-0.0 size=N/A time=00:14:02.80 bitrate=N/A speed=18.4x    frame=20485 fps=441 q=-0.0 size=N/A time=00:14:14.39 bitrate=N/A speed=18.4x    frame=20720 fps=441 q=-0.0 size=N/A time=00:14:24.19 bitrate=N/A speed=18.4x    frame=20941 fps=441 q=-0.0 size=N/A time=00:14:33.41 bitrate=N/A speed=18.4x    frame=21199 fps=442 q=-0.0 size=N/A time=00:14:44.17 bitrate=N/A speed=18.4x    frame=21437 fps=442 q=-0.0 size=N/A time=00:14:54.10 bitrate=N/A speed=18.4x    frame=21715 fps=443 q=-0.0 size=N/A time=00:15:05.69 bitrate=N/A speed=18.5x    frame=21991 fps=444 q=-0.0 size=N/A time=00:15:17.20 bitrate=N/A speed=18.5x    frame=22252 fps=445 q=-0.0 size=N/A time=00:15:28.09 bitrate=N/A speed=18.5x    frame=22490 fps=445 q=-0.0 size=N/A time=00:15:38.02 bitrate=N/A speed=18.6x    frame=22726 fps=445 q=-0.0 size=N/A time=00:15:47.86 bitrate=N/A speed=18.6x    frame=22951 fps=445 q=-0.0 size=N/A time=00:15:57.24 bitrate=N/A speed=18.6x    frame=23155 fps=444 q=-0.0 size=N/A time=00:16:05.75 bitrate=N/A speed=18.5x    frame=23411 fps=445 q=-0.0 size=N/A time=00:16:16.43 bitrate=N/A speed=18.6x    frame=23666 fps=445 q=-0.0 size=N/A time=00:16:27.06 bitrate=N/A speed=18.6x    frame=23908 fps=446 q=-0.0 size=N/A time=00:16:37.16 bitrate=N/A speed=18.6x    frame=24093 fps=445 q=-0.0 size=N/A time=00:16:44.87 bitrate=N/A speed=18.6x    frame=24320 fps=445 q=-0.0 size=N/A time=00:16:54.34 bitrate=N/A speed=18.6x    frame=24514 fps=444 q=-0.0 size=N/A time=00:17:02.43 bitrate=N/A speed=18.5x    frame=24678 fps=443 q=-0.0 size=N/A time=00:17:09.27 bitrate=N/A speed=18.5x    frame=24903 fps=443 q=-0.0 size=N/A time=00:17:18.66 bitrate=N/A speed=18.5x    frame=25113 fps=443 q=-0.0 size=N/A time=00:17:27.42 bitrate=N/A speed=18.5x    frame=25308 fps=442 q=-0.0 size=N/A time=00:17:35.55 bitrate=N/A speed=18.4x    frame=25507 fps=442 q=-0.0 size=N/A time=00:17:43.85 bitrate=N/A speed=18.4x    frame=25716 fps=441 q=-0.0 size=N/A time=00:17:52.57 bitrate=N/A speed=18.4x    frame=25919 fps=441 q=-0.0 size=N/A time=00:18:01.03 bitrate=N/A speed=18.4x    frame=26180 fps=441 q=-0.0 size=N/A time=00:18:11.92 bitrate=N/A speed=18.4x    frame=26415 fps=442 q=-0.0 size=N/A time=00:18:21.72 bitrate=N/A speed=18.4x    frame=26662 fps=442 q=-0.0 size=N/A time=00:18:32.02 bitrate=N/A speed=18.4x    frame=26885 fps=442 q=-0.0 size=N/A time=00:18:41.32 bitrate=N/A speed=18.4x    frame=27098 fps=441 q=-0.0 size=N/A time=00:18:50.21 bitrate=N/A speed=18.4x    frame=27354 fps=442 q=-0.0 size=N/A time=00:19:00.88 bitrate=N/A speed=18.4x    frame=27594 fps=442 q=-0.0 size=N/A time=00:19:10.89 bitrate=N/A speed=18.4x    frame=27794 fps=442 q=-0.0 size=N/A time=00:19:19.24 bitrate=N/A speed=18.4x    frame=28034 fps=442 q=-0.0 size=N/A time=00:19:29.25 bitrate=N/A speed=18.4x    frame=28263 fps=442 q=-0.0 size=N/A time=00:19:38.80 bitrate=N/A speed=18.4x    frame=28491 fps=442 q=-0.0 size=N/A time=00:19:48.31 bitrate=N/A speed=18.4x    frame=28740 fps=442 q=-0.0 size=N/A time=00:19:58.69 bitrate=N/A speed=18.4x    frame=28963 fps=442 q=-0.0 size=N/A time=00:20:07.99 bitrate=N/A speed=18.4x    frame=29220 fps=442 q=-0.0 size=N/A time=00:20:18.71 bitrate=N/A speed=18.5x    frame=29454 fps=443 q=-0.0 size=N/A time=00:20:28.47 bitrate=N/A speed=18.5x    frame=29698 fps=443 q=-0.0 size=N/A time=00:20:38.65 bitrate=N/A speed=18.5x    frame=29921 fps=443 q=-0.0 size=N/A time=00:20:47.95 bitrate=N/A speed=18.5x    frame=30165 fps=443 q=-0.0 size=N/A time=00:20:58.13 bitrate=N/A speed=18.5x    frame=30375 fps=443 q=-0.0 size=N/A time=00:21:06.89 bitrate=N/A speed=18.5x    frame=30634 fps=443 q=-0.0 size=N/A time=00:21:17.69 bitrate=N/A speed=18.5x    frame=30915 fps=444 q=-0.0 size=N/A time=00:21:29.41 bitrate=N/A speed=18.5x    frame=31189 fps=444 q=-0.0 size=N/A time=00:21:40.84 bitrate=N/A speed=18.5x    frame=31462 fps=445 q=-0.0 size=N/A time=00:21:52.22 bitrate=N/A speed=18.6x    frame=31731 fps=446 q=-0.0 size=N/A time=00:22:03.44 bitrate=N/A speed=18.6x    frame=31991 fps=446 q=-0.0 size=N/A time=00:22:14.29 bitrate=N/A speed=18.6x    frame=32227 fps=446 q=-0.0 size=N/A time=00:22:24.13 bitrate=N/A speed=18.6x    frame=32455 fps=446 q=-0.0 size=N/A time=00:22:33.64 bitrate=N/A speed=18.6x    frame=32708 fps=446 q=-0.0 size=N/A time=00:22:44.19 bitrate=N/A speed=18.6x    frame=32927 fps=446 q=-0.0 size=N/A time=00:22:53.33 bitrate=N/A speed=18.6x    frame=33174 fps=447 q=-0.0 size=N/A time=00:23:03.63 bitrate=N/A speed=18.6x    frame=33376 fps=446 q=-0.0 size=N/A time=00:23:12.05 bitrate=N/A speed=18.6x    frame=33552 fps=445 q=-0.0 size=N/A time=00:23:19.39 bitrate=N/A speed=18.6x    frame=33729 fps=445 q=-0.0 size=N/A time=00:23:26.78 bitrate=N/A speed=18.5x    frame=33914 fps=444 q=-0.0 size=N/A time=00:23:34.49 bitrate=N/A speed=18.5x    frame=34105 fps=444 q=-0.0 size=N/A time=00:23:42.46 bitrate=N/A speed=18.5x    frame=34282 fps=443 q=-0.0 size=N/A time=00:23:49.84 bitrate=N/A speed=18.5x    [Parsed_psnr_10 @ 0000021cd73a25c0] PSNR y:47.530251 u:50.279277 v:49.996714 average:48.238017 min:39.767894 max:inf
[out#0/null @ 0000021cca01eec0] video:14768KiB audio:268812KiB subtitle:0KiB other streams:0KiB global headers:0KiB muxing overhead: unknown
frame=34370 fps=443 q=-0.0 Lsize=N/A time=00:23:53.51 bitrate=N/A speed=18.5x    
